<?xml version="1.0" encoding="UTF-8"?>
<svg id="Layer_2" data-name="Layer 2" xmlns="http://www.w3.org/2000/svg" viewBox="0 0 73.25 70.72">
  <defs>
    <style>
      .cls-1 {
        fill: #0f0e0c;
      }

      .cls-1, .cls-2, .cls-3, .cls-4, .cls-5, .cls-6, .cls-7 {
        fill-rule: evenodd;
      }

      .cls-2 {
        fill: #f27179;
      }

      .cls-3 {
        fill: #8fba7b;
      }

      .cls-4 {
        fill: #0066b3;
      }

      .cls-5 {
        fill: #f7a26a;
      }

      .cls-6 {
        fill: #89b04b;
      }

      .cls-7 {
        fill: #e3b339;
      }
    </style>
  </defs>
  <g id="_レイヤー_1" data-name="レイヤー 1">
    <g>
      <path class="cls-6" d="M14.53,7.19c1.83-1.41,3.79-2.65,5.86-3.69,3.86-1.94,8.28-3.5,12.66-3.5,8.08,0,15.08.73,22.18,4.99,5.04,3.02,9.71,6.93,12.65,12.09,6.33,11.09,8.02,25.88-.15,36.53-5.22,6.81-12.65,11.82-21.62,10.5-12.93-1.9-19.31-18.98-9.08-27.89,3.19-2.78,6.89-4.2,11.11-4.21,4.2-.02,9.28,2.12,11.33,5.96v.74c0-1.3-6.24-3.07-7.27-3.23-2.7-.42-5.6-.02-8.1,1.09-5.79,2.57-8.25,9.83-5.37,15.5,1.23,2.41,3.79,4.53,6.31,5.43,6.11,2.18,12.35-1.87,15.8-6.72,1.04-1.46,2.02-3.13,2.71-4.79,2.98-7.17,2.95-15.51-.79-22.4-2.14-3.96-5.7-7.97-9.46-10.48-2.84-1.9-6.02-3.2-9.35-3.95-10.85-2.45-22.7-.05-30.65,8.18-1.92,1.99-3.64,4.54-4.57,7.16-2.22,6.24-2.95,14.96-1.28,21.38,2,7.73,7.43,15,14.55,18.74,2.1,1.1,4.54,1.45,6.45,2.93-3.2-6.39-8.05-12-8.05-19.54v-4.47c.13-1.98.62-3.6.74-5.58.55.07.34.9.37,1.49-.54,10.09,2.82,16.29,6.7,21.96,1.71,3.64,6.5,6.13,7.44,9.3-.02.12-8.49-.64-9.25-.71-10.51-1.07-19.64-9.53-23.31-19.11-1.08-2.83-1.92-5.85-2.5-8.82-.95-4.89-.74-9.9.52-14.71,2.09-7.98,6.9-15.14,13.41-20.16Z"/>
      <path class="cls-5" d="M38.26,25.3c-5.05-.09-8.88,1.05-12.65,2.23,1.62-7.46,3.95-16.12,13.4-14.51.71,1.07.41,3.71,0,4.84,2.76-.4,6.36-2.02,8.93-.37.45,1.04.41,2.57.37,4.09v.37c-.5,1.48-1.8,2.17-2.98,2.98h-.37c-2.11.24-5.2-.49-6.7.37Z"/>
      <path class="cls-3" d="M11.46,29.03c-2.56-4.72,1.75-8.21,6.33-8.19.83-4.26,4.33-9.66,9.3-6.33.99,4.99-3.32,7.48-2.98,13.02-4.28-1.2-8.14,2.9-12.65,1.49Z"/>
      <path class="cls-4" d="M23.37,36.84c.42-2.68.98-5.23,1.86-7.44,4.12-1.11,12.63-4.27,16-.37-.05,5.03-4.6,5.57-9.68,5.58h-.37v4.84c.6,4.63-7.3,6.41-7.81,1.49v-4.09Z"/>
      <path class="cls-2" d="M12.21,40.93c-1.52.1-1.84,1.39-3.72,1.12-2.34-8.88,6.69-12.59,14.89-13.4.43,1.72-.83,1.18-1.86,2.98-.88,1.54-1.69,4.42-2.23,6.7-1,4.22-.44,9.86-4.09,10.42-4.31.66-4.99-4.16-2.98-7.81Z"/>
      <path class="cls-1" d="M55,45.03c-.56-.78-.51-1.85-.12-2.68.67-1.4,1.76-.83,1.98.45.2,1.18-.27,3.28-1.86,2.23Z"/>
      <path class="cls-1" d="M42.72,49.12v-1.49c.3.07.37.37.74.37.56,6.51,12.42,6.21,12.65-.37.3.07.37.37.74.37.05,8.07-13.15,8.63-14.14,1.12Z"/>
      <path class="cls-7" d="M56.18,45.42c.02-.07.05-.13.08-.2.81-1.68,3.38-.97,2.63.96-.4,1.02-1.7,1.26-2.44.46-.3-.33-.39-.8-.27-1.22Z"/>
      <path class="cls-7" d="M42.6,44.43c.68.46,1.21,1.43.89,2.08-.48.99-1.87.67-2.55.13-1.08-.86-.56-2.25.82-2.45.28-.04.57.06.85.24Z"/>
      <path class="cls-1" d="M43.5,45.3c-.11-.05-.23-.12-.36-.22-.58-.48-.47-1.95-.28-2.58.23-.73,1-1.61,1.76-.88.6.57.4,1.8.26,2.53-.14.74-.68,1.44-1.39,1.16Z"/>
    </g>
  </g>
</svg>